<svg width="40" height="40" viewBox="0 0 40 40" fill="none" xmlns="http://www.w3.org/2000/svg">
<path d="M22.7657 31.0153V34.7509L19.509 36.6666L16.3481 34.7509V31.0153L19.509 32.931L22.7657 31.0153ZM5.33276 18.0843L8.49368 20V26.4176L13.9535 29.6743V33.4099L5.33276 28.3333V18.0843ZM33.6853 18.0843V28.3333L24.9688 33.4099V29.6743L30.4285 26.4176V20L33.6853 18.0843V18.0843ZM24.9688 13.0076L28.2255 14.9234V18.659L22.7657 21.9157V28.4291L19.6048 30.3448L16.4439 28.4291V21.9157L10.7925 18.659V14.9234L14.0492 13.0076L19.509 16.2643L24.9688 13.0076V13.0076ZM10.7925 21.341L13.9535 23.2567V26.9923L10.7925 25.0766V21.341ZM28.2255 21.341V25.0766L25.0646 26.9923V23.2567L28.2255 21.341ZM8.49368 9.75094L11.7504 11.6666L8.49368 13.5824V17.318L5.33276 15.4023V11.6666L8.49368 9.75094V9.75094ZM30.5243 9.75094L33.781 11.6666V15.4023L30.5243 17.318V13.5824L27.3634 11.6666L30.5243 9.75094V9.75094ZM19.509 9.75094L22.7657 11.6666L19.509 13.5824L16.3481 11.6666L19.509 9.75094V9.75094ZM19.509 3.33331L28.2255 8.40994L25.0646 10.3257L19.6048 7.06895L14.0492 10.3257L10.8883 8.40994L19.509 3.33331V3.33331Z" fill="#F3BA2F"/>
</svg>
