<svg width="41" height="40" viewBox="0 0 41 40" fill="none" xmlns="http://www.w3.org/2000/svg">
<path d="M36.8344 24.0317C34.6082 32.9604 25.564 38.3942 16.6333 36.1677C7.70641 33.9417 2.27203 24.8979 4.4992 15.9699C6.72441 7.0403 15.7687 1.60608 24.6966 3.83204C33.6266 6.05799 39.0609 15.1027 36.8344 24.0317Z" fill="#F3BA2F"/>
<path fill-rule="evenodd" clip-rule="evenodd" d="M20.6684 13.9111L16.3522 18.2268L13.841 15.7155L20.6684 8.88887L27.4981 15.7176L24.9867 18.2287L20.6684 13.9111ZM12.0676 17.4884L9.55615 20L12.0674 22.5106L14.5789 19.9994L12.0676 17.4884ZM16.3522 21.7734L20.6684 26.0889L24.9866 21.7714L27.4993 24.2811L27.4981 24.2825L20.6684 31.1111L13.8375 24.2809L16.3522 21.7734ZM29.2694 17.4898L26.758 20.001L29.2693 22.5121L31.7807 20.0009L29.2694 17.4898Z" fill="white"/>
<path d="M23.2156 19.9986L20.6684 17.4506L18.1223 19.9961L18.1187 19.9995L18.1223 20.0032L20.6684 22.5494L23.2168 20.0013L23.218 19.9999L23.2156 19.9986Z" fill="white"/>
</svg>
