<svg width="41" height="40" viewBox="0 0 41 40" fill="none" xmlns="http://www.w3.org/2000/svg">
<path d="M37.3333 20C37.3333 29.2047 29.8714 36.6666 20.6667 36.6666C11.4619 36.6666 4 29.2047 4 20C4 10.7952 11.4619 3.33331 20.6667 3.33331C29.8714 3.33331 37.3333 10.7952 37.3333 20Z" fill="#EDF0F4"/>
<path d="M20.6171 8.88887L23.3577 11.6955L16.4566 18.5966L13.716 15.856L20.6171 8.88887Z" fill="#F0B90B"/>
<path d="M24.7775 13.0493L27.5181 15.856L16.4566 26.9175L13.716 24.1769L24.7775 13.0493Z" fill="#F0B90B"/>
<path d="M12.2962 17.2098L15.0368 20.0164L12.2962 22.757L9.55556 20.0164L12.2962 17.2098Z" fill="#F0B90B"/>
<path d="M28.938 17.2098L31.6786 20.0164L20.6171 31.0779L17.8765 28.3373L28.938 17.2098Z" fill="#F0B90B"/>
</svg>
