<svg width="25" height="24" viewBox="0 0 25 24" fill="none" xmlns="http://www.w3.org/2000/svg">
<path d="M7.5 17H5.5C4.96957 17 4.46086 16.7893 4.08579 16.4142C3.71071 16.0391 3.5 15.5304 3.5 15V5C3.5 4.46957 3.71071 3.96086 4.08579 3.58579C4.46086 3.21071 4.96957 3 5.5 3H15.5C16.0304 3 16.5391 3.21071 16.9142 3.58579C17.2893 3.96086 17.5 4.46957 17.5 5V7" stroke="#F15223" stroke-width="1.5" stroke-linecap="round" stroke-linejoin="round"/>
<path d="M20.395 7H8.605C7.99472 7 7.5 7.49472 7.5 8.105V19.895C7.5 20.5053 7.99472 21 8.605 21H20.395C21.0053 21 21.5 20.5053 21.5 19.895V8.105C21.5 7.49472 21.0053 7 20.395 7Z" stroke="#F15223" stroke-width="1.5" stroke-linecap="round" stroke-linejoin="round"/>
</svg>
