<svg width="24" height="24" viewBox="0 0 24 24" fill="none" xmlns="http://www.w3.org/2000/svg">
<path d="M11.75 3C13.0356 3 14.2923 3.38122 15.3612 4.09545C16.4301 4.80968 17.2632 5.82484 17.7552 7.01256C18.2472 8.20028 18.3759 9.50721 18.1251 10.7681C17.8743 12.029 17.2552 13.1872 16.3462 14.0962C15.4372 15.0052 14.279 15.6243 13.0181 15.8751C11.7572 16.1259 10.4503 15.9972 9.26256 15.5052C8.07484 15.0132 7.05968 14.1801 6.34545 13.1112C5.63122 12.0423 5.25 10.7856 5.25 9.5C5.25 7.77609 5.93482 6.12279 7.15381 4.90381C8.37279 3.68482 10.0261 3 11.75 3" stroke="currentColor" stroke-width="1.5" stroke-linecap="round" stroke-linejoin="round"/>
<path d="M12.2068 7.04279L13.7068 8.54279C13.8943 8.73031 13.9996 8.98462 13.9996 9.24979C13.9996 9.51495 13.8943 9.76926 13.7068 9.95679L12.2068 11.4568C12.0193 11.6443 11.765 11.7496 11.4998 11.7496C11.2346 11.7496 10.9803 11.6443 10.7928 11.4568L9.29279 9.95679C9.10532 9.76926 9 9.51495 9 9.24979C9 8.98462 9.10532 8.73031 9.29279 8.54279L10.7928 7.04279C10.9803 6.85532 11.2346 6.75 11.4998 6.75C11.765 6.75 12.0193 6.85532 12.2068 7.04279V7.04279Z" stroke="currentColor" stroke-width="1.5" stroke-linecap="round" stroke-linejoin="round"/>
<path d="M7 16H17" stroke="currentColor" stroke-width="1.5" stroke-linecap="round" stroke-linejoin="round"/>
<path d="M18 12H19C19.5304 12 20.0391 12.2107 20.4142 12.5858C20.7893 12.9609 21 13.4696 21 14V19C21 19.5304 20.7893 20.0391 20.4142 20.4142C20.0391 20.7893 19.5304 21 19 21H5C4.46957 21 3.96086 20.7893 3.58579 20.4142C3.21071 20.0391 3 19.5304 3 19V14C3 13.4696 3.21071 12.9609 3.58579 12.5858C3.96086 12.2107 4.46957 12 5 12H6" stroke="currentColor" stroke-width="1.5" stroke-linecap="round" stroke-linejoin="round"/>
</svg>
