<svg width="24" height="24" viewBox="0 0 24 24" fill="none" xmlns="http://www.w3.org/2000/svg">
<path d="M17.096 12.123L11.699 16.441C11.5068 16.5948 11.2646 16.6722 11.0189 16.6586C10.7731 16.6449 10.541 16.5411 10.367 16.367L7.633 13.633C7.4589 13.459 7.35508 13.2269 7.34143 12.9811C7.32778 12.7354 7.40524 12.4932 7.559 12.301L11.877 6.904C12.8516 5.68584 14.0877 4.70247 15.4938 4.02669C16.8999 3.35091 18.44 3.00002 20 3C20.2652 3 20.5196 3.10536 20.7071 3.29289C20.8946 3.48043 21 3.73478 21 4C21 7.16 19.563 10.15 17.096 12.124V12.123Z" stroke="currentColor" stroke-width="1.5" stroke-linecap="round" stroke-linejoin="round"/>
<path d="M16 13V17.382C15.9999 17.5677 15.9481 17.7496 15.8504 17.9075C15.7528 18.0654 15.6131 18.193 15.447 18.276L13.031 19.484C12.9029 19.5481 12.7624 19.5839 12.6193 19.589C12.4761 19.5941 12.3335 19.5684 12.2011 19.5136C12.0687 19.4588 11.9497 19.3762 11.852 19.2713C11.7543 19.1665 11.6803 19.0419 11.635 18.906L11 17" stroke="currentColor" stroke-width="1.5" stroke-linecap="round" stroke-linejoin="round"/>
<path d="M7 13L5.094 12.365C4.95808 12.3197 4.83349 12.2457 4.72867 12.148C4.62384 12.0503 4.54123 11.9313 4.48642 11.7989C4.43161 11.6665 4.40589 11.5239 4.41099 11.3807C4.41609 11.2376 4.4519 11.0971 4.516 10.969L5.724 8.553C5.80699 8.38692 5.93458 8.24722 6.09247 8.14955C6.25037 8.05188 6.43234 8.0001 6.618 8H11" stroke="currentColor" stroke-width="1.5" stroke-linecap="round" stroke-linejoin="round"/>
<path d="M5.75 20.587L3 21L3.413 18.25C3.44649 17.9775 3.53423 17.7146 3.67102 17.4766C3.80781 17.2386 3.99088 17.0305 4.20944 16.8644C4.428 16.6984 4.67761 16.5778 4.94353 16.5098C5.20946 16.4418 5.48631 16.4278 5.75775 16.4685C6.02919 16.5093 6.28972 16.604 6.52395 16.7471C6.75818 16.8902 6.96138 17.0787 7.12154 17.3016C7.2817 17.5246 7.39558 17.7773 7.45646 18.0449C7.51734 18.3126 7.52398 18.5897 7.476 18.86C7.41077 19.2946 7.20794 19.6968 6.89729 20.0076C6.58665 20.3184 6.18454 20.5215 5.75 20.587V20.587Z" stroke="currentColor" stroke-width="1.5" stroke-linecap="round" stroke-linejoin="round"/>
</svg>
