<svg width="24" height="24" viewBox="0 0 24 24" fill="none" xmlns="http://www.w3.org/2000/svg">
<path d="M12 21C14.3869 21 16.6761 20.0518 18.364 18.364C20.0518 16.6761 21 14.3869 21 12C21 9.61305 20.0518 7.32387 18.364 5.63604C16.6761 3.94821 14.3869 3 12 3C9.61305 3 7.32387 3.94821 5.63604 5.63604C3.94821 7.32387 3 9.61305 3 12C3 14.3869 3.94821 16.6761 5.63604 18.364C7.32387 20.0518 9.61305 21 12 21V21Z" stroke="currentColor" stroke-width="1.5" stroke-linecap="round" stroke-linejoin="round"/>
<path d="M12.9568 10.0428L14.4568 11.5428C14.6443 11.7303 14.7496 11.9846 14.7496 12.2498C14.7496 12.515 14.6443 12.7693 14.4568 12.9568L12.9568 14.4568C12.7693 14.6443 12.515 14.7496 12.2498 14.7496C11.9846 14.7496 11.7303 14.6443 11.5428 14.4568L10.0428 12.9568C9.85532 12.7693 9.75 12.515 9.75 12.2498C9.75 11.9846 9.85532 11.7303 10.0428 11.5428L11.5428 10.0428C11.7303 9.85532 11.9846 9.75 12.2498 9.75C12.515 9.75 12.7693 9.85532 12.9568 10.0428V10.0428Z" stroke="currentColor" stroke-width="1.5" stroke-linecap="round" stroke-linejoin="round"/>
<path d="M5.5 12H6" stroke="currentColor" stroke-width="1.5" stroke-linecap="round" stroke-linejoin="round"/>
<path d="M18.5 12H18" stroke="currentColor" stroke-width="1.5" stroke-linecap="round" stroke-linejoin="round"/>
<path d="M7.75999 16.24L7.39999 16.6" stroke="currentColor" stroke-width="1.5" stroke-linecap="round" stroke-linejoin="round"/>
<path d="M16.24 7.76002L16.6 7.40002" stroke="currentColor" stroke-width="1.5" stroke-linecap="round" stroke-linejoin="round"/>
<path d="M12 18V18.5" stroke="currentColor" stroke-width="1.5" stroke-linecap="round" stroke-linejoin="round"/>
<path d="M12 5.5V6" stroke="currentColor" stroke-width="1.5" stroke-linecap="round" stroke-linejoin="round"/>
<path d="M16.24 16.24L16.6 16.6" stroke="currentColor" stroke-width="1.5" stroke-linecap="round" stroke-linejoin="round"/>
<path d="M7.39999 7.40002L7.75999 7.76002" stroke="currentColor" stroke-width="1.5" stroke-linecap="round" stroke-linejoin="round"/>
</svg>
