<svg width="48" height="48" viewBox="0 0 48 48" fill="none" xmlns="http://www.w3.org/2000/svg">
<circle cx="24" cy="24" r="20" fill="white"/>
<path fill-rule="evenodd" clip-rule="evenodd" d="M21.1124 14.5602C20.9586 14.2192 20.6192 14 20.2451 14C19.8711 14 19.5317 14.2192 19.3779 14.5602L12.0843 30.7331C11.8683 31.212 12.0814 31.7754 12.5604 31.9914C13.0394 32.2074 13.6027 31.9942 13.8187 31.5153L20.2451 17.2654L23.3489 24.1476H18.6592C18.1338 24.1476 17.7078 24.5735 17.7078 25.0989C17.7078 25.6244 18.1338 26.0503 18.6592 26.0503H24.0501C24.1017 26.0503 24.1522 26.0462 24.2015 26.0383L26.6715 31.5153C26.8875 31.9942 27.4509 32.2074 27.9299 31.9914C28.4088 31.7754 28.622 31.212 28.406 30.7331L21.1124 14.5602Z" fill="url(#paint0_linear_6864_24966)"/>
<path fill-rule="evenodd" clip-rule="evenodd" d="M28.4902 14C28.8643 14 29.2036 14.2192 29.3574 14.5602L36.6511 30.7331C36.8671 31.212 36.6539 31.7754 36.1749 31.9914C35.696 32.2074 35.1326 31.9942 34.9166 31.5153L28.4902 17.2654L26.9262 20.7334C26.7102 21.2123 26.1468 21.4255 25.6679 21.2095C25.1889 20.9935 24.9758 20.4301 25.1918 19.9512L27.623 14.5602C27.7768 14.2192 28.1161 14 28.4902 14Z" fill="#111318" fill-opacity="0.64"/>
<defs>
<linearGradient id="paint0_linear_6864_24966" x1="7.57194" y1="25.0714" x2="32.9212" y2="25.0342" gradientUnits="userSpaceOnUse">
<stop stop-color="#455EFF"/>
<stop offset="0.442708" stop-color="#B33BF6"/>
<stop offset="0.879648" stop-color="#FF5F14"/>
</linearGradient>
</defs>
</svg>
