<svg width="40" height="40" viewBox="0 0 40 40" fill="none" xmlns="http://www.w3.org/2000/svg">
<path d="M33.514 25.8024L31.6931 31.7224L28.1187 30.7824L33.514 25.8024Z" fill="#E4761B" stroke="#E4761B" stroke-width="0.0571157"/>
<path d="M28.1187 30.7824L31.5663 26.2401L33.514 25.8024L28.1187 30.7824Z" fill="#E4761B" stroke="#E4761B" stroke-width="0.0571157"/>
<path d="M30.835 21.3394L33.514 25.8028L31.5663 26.2405L30.835 21.3394ZM30.835 21.3394L32.5588 20.1913L33.514 25.8028L30.835 21.3394Z" fill="#F6851B" stroke="#F6851B" stroke-width="0.0571157"/>
<path d="M28.6411 17.9666L33.5962 16.0148L33.3499 17.084L28.6411 17.9666ZM33.1932 18.3685L28.6411 17.9666L33.3499 17.084L33.1932 18.3685Z" fill="#763D16" stroke="#763D16" stroke-width="0.0571157"/>
<path d="M33.1932 18.3685L32.5589 20.1911L28.6411 17.9666L33.1932 18.3685ZM34.1857 16.4668L33.3499 17.084L33.5962 16.0148L34.1857 16.4668ZM33.1932 18.3685L33.3499 17.084L34.014 17.615L33.1932 18.3685Z" fill="#763D16" stroke="#763D16" stroke-width="0.0571157"/>
<path d="M24.2759 29.34L25.5146 29.7203L28.119 30.7823L24.2759 29.34Z" fill="#E2761B" stroke="#E2761B" stroke-width="0.0571157"/>
<path d="M32.5596 20.1917L33.1939 18.369L33.7386 18.7709L32.5596 20.1917ZM32.5596 20.1917L27.418 18.5628L28.6418 17.9672L32.5596 20.1917Z" fill="#763D16" stroke="#763D16" stroke-width="0.0571157"/>
<path d="M29.8656 12.3771L28.6418 17.9671L27.418 18.5627L29.8656 12.3771Z" fill="#763D16" stroke="#763D16" stroke-width="0.0571157"/>
<path d="M33.5962 16.0152L28.6411 17.9671L29.8649 12.3771L33.5962 16.0152Z" fill="#763D16" stroke="#763D16" stroke-width="0.0571157"/>
<path d="M29.865 12.3767L35.0364 11.8026L33.5962 16.0148L29.865 12.3767Z" fill="#763D16" stroke="#763D16" stroke-width="0.0571157"/>
<path d="M32.5596 20.1918L30.8358 21.3399L27.418 18.5629L32.5596 20.1918Z" fill="#F6851B" stroke="#F6851B" stroke-width="0.0571157"/>
<path d="M34.8126 7.77673L35.0364 11.8024L29.865 12.3765L34.8126 7.77673Z" fill="#763D16" stroke="#763D16" stroke-width="0.0571157"/>
<path d="M34.813 7.77673L24.4776 15.0028L24.3433 10.1017L34.813 7.77673Z" fill="#E2761B" stroke="#E2761B" stroke-width="0.0571157"/>
<path d="M16.657 9.51331L24.3433 10.1017L24.4776 15.0028L16.657 9.51331Z" fill="#F6851B" stroke="#F6851B" stroke-width="0.0571157"/>
<path d="M27.4177 18.5627L24.4775 15.0034L29.8654 12.3771L27.4177 18.5627Z" fill="#763D16" stroke="#763D16" stroke-width="0.0571157"/>
<path d="M27.4174 18.5629L30.8352 21.3399L26.0369 21.8494L27.4174 18.5629Z" fill="#E4761B" stroke="#E4761B" stroke-width="0.0571157"/>
<path d="M26.0372 21.8491L24.4775 15.0033L27.4177 18.5625L26.0372 21.8491Z" fill="#E4761B" stroke="#E4761B" stroke-width="0.0571157"/>
<path d="M29.8654 12.3765L24.4775 15.0028L34.813 7.77673L29.8654 12.3765Z" fill="#763D16" stroke="#763D16" stroke-width="0.0571157"/>
<path d="M16.7238 30.6676L19.164 33.1146L15.8433 30.2084L16.7238 30.6676Z" fill="#C0AD9E" stroke="#C0AD9E" stroke-width="0.0571157"/>
<path d="M28.1187 30.7825L29.2753 26.556L31.5663 26.2402L28.1187 30.7825Z" fill="#CD6116" stroke="#CD6116" stroke-width="0.0571157"/>
<path d="M6.82861 18.8921L11.0523 14.6224L7.37337 18.3826L6.82861 18.8921Z" fill="#E2761B" stroke="#E2761B" stroke-width="0.0571157"/>
<path d="M31.5669 26.2402L29.2759 26.556L30.8356 21.3391L31.5669 26.2402ZM24.4776 15.0028L20.3658 14.8737L16.657 9.51331L24.4776 15.0028Z" fill="#F6851B" stroke="#F6851B" stroke-width="0.0571157"/>
<path d="M30.8354 21.3395L29.2758 26.5563L29.1489 24.0089L30.8354 21.3395Z" fill="#E4751F" stroke="#E4751F" stroke-width="0.0571157"/>
<path d="M26.0369 21.849L30.8352 21.3395L29.1487 24.0089L26.0369 21.849Z" fill="#CD6116" stroke="#CD6116" stroke-width="0.0571157"/>
<path d="M20.3655 14.8739L24.4773 15.0031L26.0369 21.8488L20.3655 14.8739Z" fill="#F6851B" stroke="#F6851B" stroke-width="0.0571157"/>
<path d="M20.3653 14.874L9.26869 5L16.6565 9.51361L20.3653 14.874ZM16.649 32.1678L7.00758 35.0381L5.08228 27.9699L16.649 32.1678Z" fill="#E4761B" stroke="#E4761B" stroke-width="0.0571157"/>
<path d="M8.26172 20.6577L11.9034 17.9093L14.9555 18.591L8.26172 20.6577Z" fill="#763D16" stroke="#763D16" stroke-width="0.0571157"/>
<path d="M14.9557 18.5912L11.9036 17.9095L13.5378 11.4225L14.9557 18.5912Z" fill="#763D16" stroke="#763D16" stroke-width="0.0571157"/>
<path d="M7.37402 18.3829L11.9037 17.9093L8.26205 20.6577L7.37402 18.3829Z" fill="#763D16" stroke="#763D16" stroke-width="0.0571157"/>
<path d="M29.1487 24.0089L27.2682 23.0976L26.0369 21.849L29.1487 24.0089Z" fill="#CD6116" stroke="#CD6116" stroke-width="0.0571157"/>
<path d="M7.37337 18.3827L7.05249 16.7538L11.9031 17.9091L7.37337 18.3827Z" fill="#763D16" stroke="#763D16" stroke-width="0.0571157"/>
<path d="M26.8799 25.1496L27.2679 23.0973L29.1485 24.0086L26.8799 25.1496Z" fill="#233447" stroke="#233447" stroke-width="0.0571157"/>
<path d="M29.2753 26.5562L26.8799 25.1497L29.1485 24.0088L29.2753 26.5562Z" fill="#F6851B" stroke="#F6851B" stroke-width="0.0571157"/>
<path d="M11.9031 17.9095L7.05249 16.7541L6.65698 15.3836L11.9031 17.9095ZM13.5373 11.4225L11.9031 17.9095L6.65698 15.3836L13.5373 11.4225ZM13.5373 11.4225L20.3654 14.8741L14.9552 18.5912L13.5373 11.4225Z" fill="#763D16" stroke="#763D16" stroke-width="0.0571157"/>
<path d="M14.9553 18.591L20.3656 14.8739L22.7759 21.9565L14.9553 18.591ZM22.7759 21.9565L15.2986 21.8058L14.9553 18.591L22.7759 21.9565Z" fill="#E4761B" stroke="#E4761B" stroke-width="0.0571157"/>
<path d="M8.26172 20.6576L14.9555 18.591L15.2988 21.8058L8.26172 20.6576ZM26.0372 21.8488L22.7761 21.9565L20.3657 14.8739L26.0372 21.8488Z" fill="#F6851B" stroke="#F6851B" stroke-width="0.0571157"/>
<path d="M27.2682 23.0976L26.8801 25.1499L26.0369 21.849L27.2682 23.0976Z" fill="#CD6116" stroke="#CD6116" stroke-width="0.0571157"/>
<path d="M9.26929 5L20.3659 14.874L13.5378 11.4224L9.26929 5Z" fill="#763D16" stroke="#763D16" stroke-width="0.0571157"/>
<path d="M5.08301 27.9699L14.4409 27.5968L16.6497 32.1678L5.08301 27.9699Z" fill="#E4761B" stroke="#E4761B" stroke-width="0.0571157"/>
<path d="M16.6491 32.1675L14.4402 27.5965L19.037 27.3812L16.6491 32.1675Z" fill="#CD6116" stroke="#CD6116" stroke-width="0.0571157"/>
<path d="M26.8807 25.1497L29.2761 26.5561L30.597 29.5485L26.8807 25.1497ZM15.299 21.8057L5.08301 27.9698L8.26199 20.6576L15.299 21.8057ZM14.4409 27.5966L5.08301 27.9698L15.299 21.8057L14.4409 27.5966ZM26.0375 21.8488L26.6494 23.9872L23.6943 24.1522L26.0375 21.8488ZM23.6943 24.1522L22.7764 21.9564L26.0375 21.8488L23.6943 24.1522Z" fill="#F6851B" stroke="#F6851B" stroke-width="0.0571157"/>
<path d="M19.1645 33.1152L16.6497 32.168L25.3956 33.5816L19.1645 33.1152Z" fill="#C0AD9E" stroke="#C0AD9E" stroke-width="0.0571157"/>
<path d="M8.2614 20.6577L6.82861 18.8924L7.37337 18.3829L8.2614 20.6577Z" fill="#763D16" stroke="#763D16" stroke-width="0.0571157"/>
<path d="M26.3881 32.5339L25.3956 33.5816L16.6497 32.168L26.3881 32.5339Z" fill="#D7C1B3" stroke="#D7C1B3" stroke-width="0.0571157"/>
<path d="M26.8582 29.9645L16.6497 32.1675L19.0376 27.3812L26.8582 29.9645Z" fill="#E4761B" stroke="#E4761B" stroke-width="0.0571157"/>
<path d="M16.6497 32.168L26.8582 29.965L26.3881 32.5339L16.6497 32.168Z" fill="#D7C1B3" stroke="#D7C1B3" stroke-width="0.0571157"/>
<path d="M6.65661 15.3831L6.3208 9.86487L13.537 11.422L6.65661 15.3831ZM7.373 18.3826L6.3805 17.4139L7.05212 16.7537L7.373 18.3826Z" fill="#763D16" stroke="#763D16" stroke-width="0.0571157"/>
<path d="M21.1035 23.3772L22.7751 21.9564L22.5363 25.4295L21.1035 23.3772Z" fill="#CD6116" stroke="#CD6116" stroke-width="0.0571157"/>
<path d="M22.7755 21.9564L21.1039 23.3772L18.6711 24.59L22.7755 21.9564Z" fill="#CD6116" stroke="#CD6116" stroke-width="0.0571157"/>
<path d="M30.5962 29.5486L30.141 29.2257L26.8799 25.1498L30.5962 29.5486Z" fill="#F6851B" stroke="#F6851B" stroke-width="0.0571157"/>
<path d="M18.6718 24.59L15.2988 21.8058L22.7762 21.9565L18.6718 24.59Z" fill="#CD6116" stroke="#CD6116" stroke-width="0.0571157"/>
<path d="M22.5376 25.4295L22.7764 21.9564L23.6943 24.1522L22.5376 25.4295Z" fill="#E4751F" stroke="#E4751F" stroke-width="0.0571157"/>
<path d="M6.05225 15.9287L6.6567 15.3833L7.05221 16.7539L6.05225 15.9287Z" fill="#763D16" stroke="#763D16" stroke-width="0.0571157"/>
<path d="M22.5367 25.4296L18.6711 24.59L21.1039 23.3773L22.5367 25.4296Z" fill="#233447" stroke="#233447" stroke-width="0.0571157"/>
<path d="M13.537 11.4224L6.3208 9.86523L9.26845 5L13.537 11.4224Z" fill="#763D16" stroke="#763D16" stroke-width="0.0571157"/>
<path d="M25.3954 33.5817L25.8059 34.658L19.1643 33.1152L25.3954 33.5817Z" fill="#C0AD9E" stroke="#C0AD9E" stroke-width="0.0571157"/>
<path d="M19.0368 27.3813L18.6711 24.5898L22.5367 25.4294L19.0368 27.3813Z" fill="#F6851B" stroke="#F6851B" stroke-width="0.0571157"/>
<path d="M15.2988 21.8058L18.6718 24.59L19.0375 27.3814L15.2988 21.8058Z" fill="#E4751F" stroke="#E4751F" stroke-width="0.0571157"/>
<path d="M23.6936 24.1523L26.6487 23.9872L30.1411 29.2256L23.6936 24.1523ZM15.2984 21.8058L19.037 27.3814L14.4402 27.5967L15.2984 21.8058Z" fill="#F6851B" stroke="#F6851B" stroke-width="0.0571157"/>
<path d="M23.6943 24.152L27.3658 29.5267L22.5376 25.4293L23.6943 24.152Z" fill="#E4751F" stroke="#E4751F" stroke-width="0.0571157"/>
<path d="M22.5376 25.4297L27.3658 29.5271L26.8583 29.9648L22.5376 25.4297Z" fill="#F6851B" stroke="#F6851B" stroke-width="0.0571157"/>
<path d="M26.8572 29.9644L19.0366 27.3811L22.5365 25.4293L26.8572 29.9644ZM30.1407 29.2253L27.3647 29.5267L23.6932 24.152L30.1407 29.2253Z" fill="#F6851B" stroke="#F6851B" stroke-width="0.0571157"/>
<path d="M30.8722 31.7513L29.6782 34.0548L25.8052 34.6576L30.8722 31.7513ZM25.8052 34.6576L25.3948 33.5812L26.3873 32.5335L25.8052 34.6576Z" fill="#C0AD9E" stroke="#C0AD9E" stroke-width="0.0571157"/>
<path d="M26.3877 32.5335L27.119 32.2537L25.8057 34.6576L26.3877 32.5335ZM25.8057 34.6576L27.119 32.2537L30.8726 31.7513L25.8057 34.6576Z" fill="#C0AD9E" stroke="#C0AD9E" stroke-width="0.0571157"/>
<path d="M30.1414 29.2252L31.0592 29.7634L28.2683 30.0863L30.1414 29.2252Z" fill="#161616" stroke="#161616" stroke-width="0.0571157"/>
<path d="M28.2687 30.0863L27.3657 29.5266L30.1417 29.2252L28.2687 30.0863ZM27.9478 30.5097L31.3432 30.115L30.8731 31.7511L27.9478 30.5097Z" fill="#161616" stroke="#161616" stroke-width="0.0571157"/>
<path d="M30.8726 31.7517L27.119 32.254L27.9473 30.5103L30.8726 31.7517ZM27.119 32.254L26.3877 32.5339L26.8578 29.9649L27.119 32.254ZM26.8578 29.9649L27.3653 29.5272L28.2682 30.0869L26.8578 29.9649ZM31.0592 29.764L31.3427 30.1156L27.9473 30.5103L31.0592 29.764Z" fill="#161616" stroke="#161616" stroke-width="0.0571157"/>
<path d="M27.9474 30.5103L28.2683 30.087L31.0592 29.764L27.9474 30.5103ZM26.8579 29.965L27.9474 30.5103L27.1191 32.2541L26.8579 29.965Z" fill="#161616" stroke="#161616" stroke-width="0.0571157"/>
<path d="M28.2683 30.087L27.9474 30.5103L26.8579 29.965L28.2683 30.087Z" fill="#161616" stroke="#161616" stroke-width="0.0571157"/>
</svg>
