<svg width="24" height="24" viewBox="0 0 24 24" fill="none" xmlns="http://www.w3.org/2000/svg">
<path d="M21 18L18 21" stroke="currentColor" stroke-width="1.5" stroke-linecap="round" stroke-linejoin="round"/>
<path d="M21 21V18H18" stroke="currentColor" stroke-width="1.5" stroke-linecap="round" stroke-linejoin="round"/>
<path d="M3 6L6 3" stroke="currentColor" stroke-width="1.5" stroke-linecap="round" stroke-linejoin="round"/>
<path d="M3 3V6H6" stroke="currentColor" stroke-width="1.5" stroke-linecap="round" stroke-linejoin="round"/>
<path d="M9.5 20C10.5878 20 11.6512 19.6774 12.5556 19.0731C13.4601 18.4687 14.1651 17.6098 14.5813 16.6048C14.9976 15.5998 15.1065 14.4939 14.8943 13.427C14.6821 12.3601 14.1583 11.3801 13.3891 10.6109C12.6199 9.84173 11.6399 9.3179 10.573 9.10568C9.5061 8.89346 8.40023 9.00238 7.39524 9.41867C6.39025 9.83495 5.53126 10.5399 4.92692 11.4444C4.32257 12.3488 4 13.4122 4 14.5C4 15.2223 4.14226 15.9375 4.41866 16.6048C4.69506 17.2721 5.10019 17.8784 5.61091 18.3891C6.64236 19.4205 8.04131 20 9.5 20V20Z" stroke="currentColor" stroke-width="1.5" stroke-linecap="round" stroke-linejoin="round"/>
<path d="M18.39 13.39C19.4217 12.3583 20.0013 10.959 20.0013 9.50001C20.0013 8.04098 19.4217 6.6417 18.39 5.61001C17.3583 4.57832 15.959 3.99872 14.5 3.99872C13.041 3.99872 11.6417 4.57832 10.61 5.61001" stroke="currentColor" stroke-width="1.5" stroke-linecap="round" stroke-linejoin="round"/>
<path d="M10.207 12.293L11.707 13.793C11.8945 13.9805 11.9998 14.2348 11.9998 14.5C11.9998 14.7652 11.8945 15.0195 11.707 15.207L10.207 16.707C10.0195 16.8945 9.76516 16.9998 9.5 16.9998C9.23484 16.9998 8.98053 16.8945 8.793 16.707L7.293 15.207C7.10553 15.0195 7.00021 14.7652 7.00021 14.5C7.00021 14.2348 7.10553 13.9805 7.293 13.793L8.793 12.293C8.98053 12.1055 9.23484 12.0002 9.5 12.0002C9.76516 12.0002 10.0195 12.1055 10.207 12.293V12.293Z" stroke="currentColor" stroke-width="1.5" stroke-linecap="round" stroke-linejoin="round"/>
</svg>
