<svg width="41" height="40" viewBox="0 0 41 40" fill="none" xmlns="http://www.w3.org/2000/svg">
<path d="M20.6667 36.6666C29.9028 36.6666 37.3333 29.2361 37.3333 20C37.3333 10.7638 29.9028 3.33331 20.6667 3.33331C11.4305 3.33331 4 10.7638 4 20C4 29.2361 11.4305 36.6666 20.6667 36.6666Z" fill="#2775CA"/>
<path d="M25.6667 22.455C25.6667 20.0346 24.0995 19.2048 20.9651 18.859C18.7263 18.5823 18.2786 18.0292 18.2786 17.0609C18.2786 16.0926 19.0249 15.4703 20.5174 15.4703C21.8607 15.4703 22.607 15.8853 22.9801 16.9226C23.0548 17.1301 23.2786 17.2683 23.5025 17.2683H24.6964C24.995 17.2683 25.2189 17.0609 25.2189 16.7843V16.7151C24.9203 15.1936 23.577 14.018 21.8607 13.8798V12.22C21.8607 11.9434 21.6368 11.7359 21.2637 11.6667H20.1443C19.8457 11.6667 19.6218 11.8742 19.5472 12.22V13.8106C17.3083 14.0873 15.8905 15.4703 15.8905 17.1993C15.8905 19.4814 17.383 20.3804 20.5174 20.7262C22.607 21.072 23.2786 21.4869 23.2786 22.5935C23.2786 23.7 22.2337 24.4607 20.8159 24.4607C18.8755 24.4607 18.2039 23.6998 17.98 22.6625C17.9055 22.386 17.6816 22.2476 17.4577 22.2476H16.1889C15.8905 22.2476 15.6667 22.455 15.6667 22.7317V22.8009C15.965 24.5297 17.1591 25.7745 19.6218 26.1204V27.7802C19.6218 28.0567 19.8457 28.2641 20.2188 28.3334H21.3382C21.6368 28.3334 21.8607 28.1259 21.9354 27.7802V26.1204C24.1742 25.7745 25.6667 24.3222 25.6667 22.455V22.455Z" fill="white"/>
<path fill-rule="evenodd" clip-rule="evenodd" d="M10.9442 16.5972C8.93022 21.9446 11.7081 27.9862 17.1247 29.9306C17.333 30.0696 17.5414 30.3472 17.5414 30.5556V31.5279C17.5414 31.6667 17.5414 31.7362 17.4719 31.8056C17.4025 32.0834 17.1247 32.2222 16.8469 32.0834C12.958 30.8334 9.97188 27.8472 8.72188 23.9584C6.63855 17.3612 10.2497 10.3472 16.8469 8.26391C16.9164 8.19458 17.0552 8.19458 17.1247 8.19458C17.4025 8.26391 17.5414 8.47225 17.5414 8.75008V9.72225C17.5414 10.0696 17.4025 10.2779 17.1247 10.4167C14.2776 11.4584 11.9859 13.6806 10.9442 16.5972ZM23.8609 8.54176C23.9302 8.26393 24.2081 8.12509 24.4859 8.26393C28.3052 9.51393 31.3609 12.5001 32.6109 16.4584C34.6942 23.0556 31.0831 30.0696 24.4859 32.1529C24.4164 32.2223 24.2776 32.2223 24.2081 32.2223C23.9302 32.1529 23.7914 31.9446 23.7914 31.6668V30.6946C23.7914 30.3473 23.9302 30.1389 24.2081 30.0001C27.0552 28.9584 29.3469 26.7363 30.3886 23.8196C32.4026 18.4723 29.6247 12.4306 24.2081 10.4863C23.9997 10.3473 23.7914 10.0696 23.7914 9.79176V8.81959C23.7914 8.68059 23.7914 8.61126 23.8609 8.54176Z" fill="white"/>
</svg>
