<svg width="41" height="40" viewBox="0 0 41 40" fill="none" xmlns="http://www.w3.org/2000/svg">
<path d="M36.8309 24.0317C34.605 32.9604 25.5617 38.3942 16.632 36.1677C7.70602 33.9417 2.27221 24.8979 4.49914 15.9699C6.72412 7.0403 15.7674 1.60608 24.6944 3.83204C33.6234 6.05799 39.0569 15.1028 36.8307 24.0319L36.8309 24.0317Z" fill="#50AF95"/>
<path fill-rule="evenodd" clip-rule="evenodd" d="M22.7757 21.8895C22.6579 21.8983 22.049 21.9347 20.6908 21.9347C19.6105 21.9347 18.8435 21.9023 18.5744 21.8895C14.3996 21.7059 11.2835 20.9791 11.2835 20.109C11.2835 19.2389 14.3996 18.5131 18.5744 18.3265V21.1657C18.8474 21.1854 19.6292 21.2315 20.7094 21.2315C22.0058 21.2315 22.6549 21.1775 22.7718 21.1667V18.3285C26.9377 18.5141 30.047 19.2409 30.047 20.109C30.047 20.9772 26.9387 21.7039 22.7718 21.8885L22.7757 21.8895ZM22.7757 18.0349V15.4943H28.5896V11.62H12.7606V15.4943H18.5734V18.0339C13.8487 18.2509 10.2956 19.1868 10.2956 20.3084C10.2956 21.4299 13.8487 22.3648 18.5734 22.5828V30.7242H22.7747V22.5799C27.4887 22.3629 31.0359 21.4279 31.0359 20.3074C31.0359 19.1868 27.4916 18.2519 22.7747 18.0339L22.7757 18.0349Z" fill="white"/>
</svg>
