<svg width="40" height="40" viewBox="0 0 40 40" fill="none" xmlns="http://www.w3.org/2000/svg">
<path d="M36.0416 20C36.0416 10.7952 28.5797 3.33331 19.3749 3.33331C10.1702 3.33331 2.70825 10.7952 2.70825 20C2.70825 29.2047 10.1702 36.6666 19.3749 36.6666C28.5797 36.6666 36.0416 29.2047 36.0416 20Z" fill="url(#paint0_radial_6796_40784)"/>
<path d="M13.7246 15.3471C16.8453 12.2917 21.9048 12.2917 25.0255 15.3471L25.401 15.7148C25.5571 15.8676 25.5571 16.1152 25.401 16.268L24.1163 17.5259C24.0382 17.6023 23.9118 17.6023 23.8337 17.5259L23.3169 17.0199C21.1399 14.8884 17.6102 14.8884 15.4332 17.0199L14.8797 17.5618C14.8017 17.6382 14.6752 17.6382 14.5972 17.5618L13.3124 16.3039C13.1564 16.1511 13.1564 15.9034 13.3124 15.7507L13.7246 15.3471ZM27.6825 17.9485L28.8259 19.068C28.9819 19.2208 28.9819 19.4685 28.8259 19.6213L23.6701 24.6694C23.514 24.8221 23.261 24.8221 23.105 24.6694C23.105 24.6694 23.105 24.6694 23.105 24.6694L19.4457 21.0866C19.4067 21.0484 19.3434 21.0484 19.3044 21.0866C19.3044 21.0866 19.3044 21.0866 19.3044 21.0866L15.6452 24.6694C15.4892 24.8221 15.2362 24.8221 15.0802 24.6694C15.0802 24.6694 15.0802 24.6694 15.0802 24.6694L9.92415 19.6212C9.76812 19.4684 9.76812 19.2208 9.92415 19.068L11.0676 17.9485C11.2236 17.7957 11.4766 17.7957 11.6326 17.9485L15.292 21.5313C15.331 21.5695 15.3943 21.5695 15.4333 21.5313C15.4333 21.5313 15.4333 21.5313 15.4333 21.5313L19.0925 17.9485C19.2485 17.7957 19.5015 17.7957 19.6575 17.9484C19.6575 17.9484 19.6575 17.9484 19.6575 17.9484L23.3169 21.5313C23.3559 21.5695 23.4191 21.5695 23.4581 21.5313L27.1174 17.9485C27.2735 17.7958 27.5264 17.7958 27.6825 17.9485Z" fill="white"/>
<defs>
<radialGradient id="paint0_radial_6796_40784" cx="0" cy="0" r="1" gradientUnits="userSpaceOnUse" gradientTransform="translate(2.70825 20) scale(33.3333)">
<stop stop-color="#5D9DF6"/>
<stop offset="1" stop-color="#006FFF"/>
</radialGradient>
</defs>
</svg>
